<?xml version="1.0" encoding="UTF-8" standalone="no"?>
<svg
   width="16"
   height="16"
   fill="currentColor"
   class="bi bi-backpack2"
   viewBox="0 0 16 16"
   version="1.1"
   id="svg3"
   sodipodi:docname="backpack.svg"
   inkscape:version="1.4.2 (f4327f4, 2025-05-13)"
   xmlns:inkscape="http://www.inkscape.org/namespaces/inkscape"
   xmlns:sodipodi="http://sodipodi.sourceforge.net/DTD/sodipodi-0.dtd"
   xmlns="http://www.w3.org/2000/svg"
   xmlns:svg="http://www.w3.org/2000/svg">
  <defs
     id="defs3" />
  <sodipodi:namedview
     id="namedview3"
     pagecolor="#ffffff"
     bordercolor="#000000"
     borderopacity="0.25"
     inkscape:showpageshadow="2"
     inkscape:pageopacity="0.0"
     inkscape:pagecheckerboard="0"
     inkscape:deskcolor="#d1d1d1"
     inkscape:zoom="15.3125"
     inkscape:cx="7.7387755"
     inkscape:cy="10.057143"
     inkscape:window-width="1360"
     inkscape:window-height="692"
     inkscape:window-x="-8"
     inkscape:window-y="-8"
     inkscape:window-maximized="1"
     inkscape:current-layer="svg3" />
  <path
     d="M4.04 7.43a4 4 0 0 1 7.92 0 .5.5 0 1 1-.99.14 3 3 0 0 0-5.94 0 .5.5 0 1 1-.99-.14"
     id="path1" />
  <path
     fill-rule="evenodd"
     d="M4 9.5a.5.5 0 0 1 .5-.5h7a.5.5 0 0 1 .5.5v4a.5.5 0 0 1-.5.5h-7a.5.5 0 0 1-.5-.5zm1 .5v3h6v-3h-1v.5a.5.5 0 0 1-1 0V10z"
     id="path2" />
  <path
     d="M6 2.341V2a2 2 0 1 1 4 0v.341c2.33.824 4 3.047 4 5.659v1.191l1.17.585a1.5 1.5 0 0 1 .83 1.342V13.5a1.5 1.5 0 0 1-1.5 1.5h-1c-.456.607-1.182 1-2 1h-7a2.5 2.5 0 0 1-2-1h-1A1.5 1.5 0 0 1 0 13.5v-2.382a1.5 1.5 0 0 1 .83-1.342L2 9.191V8a6 6 0 0 1 4-5.659M7 2v.083a6 6 0 0 1 2 0V2a1 1 0 0 0-2 0M3 13.5A1.5 1.5 0 0 0 4.5 15h7a1.5 1.5 0 0 0 1.5-1.5V8A5 5 0 0 0 3 8zm-1-3.19-.724.362a.5.5 0 0 0-.276.447V13.5a.5.5 0 0 0 .5.5H2zm12 0V14h.5a.5.5 0 0 0 .5-.5v-2.382a.5.5 0 0 0-.276-.447L14 10.309Z"
     id="path3" />
  <path
     style="fill:#bdc6cf;fill-opacity:1;fill-rule:nonzero;stroke-width:0;stroke-dasharray:none"
     d="M 4.1741188,13.812709 4.0113173,13.649907 4.0301485,11.463942 C 4.0473478,9.4673949 4.0590848,9.2678787 4.1655977,9.1614375 4.2747894,9.0523193 4.5189665,9.044898 8,9.044898 c 3.481034,0 3.725211,0.00742 3.834403,0.1165395 0.106512,0.1064412 0.118249,0.3059574 0.135448,2.3025045 l 0.01883,2.185965 -0.162801,0.162802 -0.162801,0.162801 H 8 4.3369202 Z M 11.004082,11.526531 V 9.9918367 H 10.481633 9.9591837 V 10.34628 c 0,0.305128 -0.023942,0.373277 -0.1720725,0.489796 -0.09464,0.07444 -0.2229215,0.135353 -0.2850704,0.135353 -0.062149,0 -0.1904306,-0.06091 -0.2850704,-0.135353 C 9.0688398,10.719557 9.044898,10.651408 9.044898,10.34628 V 9.9918367 H 7.0204082 4.9959184 v 1.5346943 1.534693 H 8 11.004082 Z"
     id="path29" />
  <path
     style="fill:#bdc6cf;fill-opacity:1;fill-rule:nonzero;stroke-width:0;stroke-dasharray:none"
     d="M 4.1338819,15.929487 C 3.6616868,15.860244 3.1702634,15.611905 2.7763924,15.243485 L 2.4680875,14.955102 H 1.8360278 c -0.7158022,0 -0.99454163,-0.08573 -1.33787999,-0.411473 C 0.06900679,14.136478 0.03564688,13.980496 0.03445152,12.37551 0.03384366,11.559348 0.06330916,10.831 0.10266931,10.689255 0.21839846,10.27249 0.57486263,9.9504633 1.3517691,9.5608307 L 2.0571429,9.207072 V 8.2579259 c 0,-1.0657829 0.098781,-1.6737071 0.3983796,-2.4517235 C 2.8348249,4.8212048 3.737278,3.6882302 4.6339788,3.0712839 4.8026368,2.9552441 5.1881718,2.7443004 5.4907231,2.60252 L 6.0408163,2.3447376 V 2.0003289 c 0,-0.5026598 0.1647209,-0.9107702 0.5280647,-1.30832603 C 6.9804513,0.24167939 7.4017848,0.05378151 8,0.05378151 c 0.5982152,0 1.0195487,0.18789788 1.431119,0.63822136 C 9.7933969,1.0883921 9.9591837,1.4975743 9.9591837,1.9953287 V 2.3347372 L 10.5149,2.6013887 c 0.305644,0.1466583 0.691179,0.3598521 0.856744,0.473764 0.891026,0.613042 1.794542,1.7486774 2.172833,2.7310497 0.299599,0.7780164 0.39838,1.3859406 0.39838,2.4517235 V 9.207072 l 0.705374,0.3537587 c 0.776907,0.3896326 1.13337,0.7116593 1.2491,1.1284243 0.09047,0.32581 0.09047,2.916088 0,3.241898 -0.08852,0.318774 -0.475695,0.749119 -0.811617,0.90211 -0.195511,0.08904 -0.423804,0.119331 -0.907513,0.120405 l -0.646289,0.0014 -0.308304,0.288383 c -0.410736,0.384196 -0.878714,0.611989 -1.417241,0.689857 -0.535143,0.07738 -7.1411507,0.07406 -7.6724851,-0.0039 z m 8.0157261,-1.06365 c 0.381341,-0.177576 0.625659,-0.441819 0.778477,-0.841967 0.09686,-0.25362 0.10561,-0.632219 0.08346,-3.610742 C 12.983905,6.695168 12.993106,6.7787115 12.500708,5.7741953 12.195353,5.1512539 11.669475,4.4910777 11.149181,4.0775159 10.681215,3.7055476 9.7387154,3.2452433 9.155714,3.1039329 8.5638877,2.9604836 7.4298514,2.9614043 6.844286,3.1058095 4.8625688,3.5945173 3.3605936,5.2049189 3.0409799,7.1836735 c -0.04107,0.2542667 -0.068187,1.6684251 -0.067624,3.5265305 9.045e-4,2.981718 0.00611,3.11344 0.1341724,3.395918 0.1790554,0.394956 0.3564189,0.575529 0.7455327,0.759026 l 0.3265306,0.153984 H 8 11.820408 Z M 2.0571429,12.179592 c 0,-1.446422 -0.018193,-1.860815 -0.081633,-1.859388 -0.1763801,0.004 -0.8677757,0.431805 -0.9468566,0.585918 -0.0619051,0.120641 -0.0792456,0.510033 -0.0664195,1.491495 l 0.0173577,1.32823 0.1832336,0.157484 c 0.1451118,0.124721 0.2572039,0.157485 0.5387755,0.157485 h 0.355542 z m 12.7800321,1.703739 0.183233,-0.157484 0.01736,-1.32823 c 0.01283,-0.981462 -0.0045,-1.370854 -0.06642,-1.491495 -0.07908,-0.154113 -0.770476,-0.581951 -0.946856,-0.585918 -0.06344,-0.0014 -0.08163,0.412966 -0.08163,1.859388 v 1.861224 h 0.355542 c 0.281572,0 0.393664,-0.03276 0.538776,-0.157485 z M 9.0130566,1.8285714 C 8.9279608,1.3453488 8.4915167,0.97959184 8,0.97959184 c -0.4915167,0 -0.9279608,0.36575696 -1.0130567,0.84897956 L 6.9466919,2.0571429 H 8 9.0533081 Z"
     id="path30" />
  <path
     style="fill:#bdc6cf;fill-opacity:1;fill-rule:nonzero;stroke-width:0;stroke-dasharray:none"
     d="M 4.2122449,7.8367347 C 4.0528661,7.6773559 4.0448466,7.3978487 4.185884,6.9179756 4.5800591,5.5768142 5.7060588,4.4878028 7.0504554,4.1475034 7.5499039,4.0210809 8.4513396,4.0212788 8.9495446,4.1479205 c 1.3591174,0.345482 2.4667834,1.4166006 2.8645714,2.7700551 0.197846,0.673162 0.07541,1.0493713 -0.341508,1.0493713 -0.254032,0 -0.439864,-0.2251783 -0.526186,-0.6375982 C 10.721244,6.2539351 9.8431976,5.3484444 8.7487372,5.0633736 7.117655,4.6385307 5.3958322,5.6945871 5.0535784,7.3297487 5.0140094,7.5187951 4.9209503,7.7395918 4.8467805,7.8204082 4.6783713,8.0039089 4.3869182,8.0114079 4.2122449,7.8367347 Z"
     id="path31" />
</svg>
